<mxfile host="app.diagrams.net" modified="2023-04-27T22:45:35.884Z" agent="Mozilla/5.0 (X11; Ubuntu; Linux x86_64; rv:109.0) Gecko/20100101 Firefox/112.0" version="21.2.2" etag="4jmj1No9JxeGdFE5hA1H" type="github">
  <diagram name="Page-1" id="ySkdnUS_XSoDzDscAiLT">
    <mxGraphModel>
      <root>
        <mxCell id="0" />
        <mxCell id="1" parent="0" />
      </root>
    </mxGraphModel>
  </diagram>
</mxfile>
